HIERARCHY
ROOT Hips
{
	OFFSET 0.000000 0.000000 0.000000
	CHANNELS 6 Xposition Yposition Zposition Zrotation Yrotation Xrotation 
	JOINT LowerBack
	{
		OFFSET 0.000000 0.000000 0.000000
		CHANNELS 3 Zrotation Yrotation Xrotation
		JOINT Spine
		{
			OFFSET 0.028270 2.035590 -0.193380
			CHANNELS 3 Zrotation Yrotation Xrotation
			JOINT Spine1
			{
				OFFSET 0.056720 2.048850 -0.042750
				CHANNELS 3 Zrotation Yrotation Xrotation
				JOINT Neck
				{
					OFFSET 0.000000 0.000000 0.000000
					CHANNELS 3 Zrotation Yrotation Xrotation
					JOINT Neck1
					{
						OFFSET -0.054170 1.746240 0.172020
						CHANNELS 3 Zrotation Yrotation Xrotation
						JOINT Head
						{
							OFFSET 0.104070 1.761360 -0.123970
							CHANNELS 3 Zrotation Yrotation Xrotation
							End Site
							{
								OFFSET 0.000000 0.000000 0.000000
							}
						}
					}
				}
				JOINT LeftShoulder
				{
					OFFSET 0.000000 0.000000 0.000000
					CHANNELS 3 Zrotation Yrotation Xrotation
					JOINT LeftArm
					{
						OFFSET 3.362410 1.200890 -0.311210
						CHANNELS 3 Zrotation Yrotation Xrotation
						JOINT LeftForeArm
						{
							OFFSET 4.983000 -0.000000 -0.000000
							CHANNELS 3 Zrotation Yrotation Xrotation
							JOINT LeftHand
							{
								OFFSET 3.483560 -0.000000 -0.000000
								CHANNELS 3 Zrotation Yrotation Xrotation
								JOINT LeftFingerBase
								{
									OFFSET 0.000000 0.000000 0.000000
									CHANNELS 3 Zrotation Yrotation Xrotation
									JOINT LeftHandIndex1
									{
										OFFSET 0.715260 -0.000000 -0.000000
										CHANNELS 3 Zrotation Yrotation Xrotation
										End Site
										{
											OFFSET 0.000000 0.000000 0.000000
										}
									}
								}
								JOINT LThumb
								{
									OFFSET 0.000000 0.000000 0.000000
									CHANNELS 3 Zrotation Yrotation Xrotation
									End Site
									{
										OFFSET 0.000000 0.000000 0.000000
									}
								}
							}
						}
					}
				}
				JOINT RightShoulder
				{
					OFFSET 0.000000 0.000000 0.000000
					CHANNELS 3 Zrotation Yrotation Xrotation
					JOINT RightArm
					{
						OFFSET -3.136600 1.374050 -0.404650
						CHANNELS 3 Zrotation Yrotation Xrotation
						JOINT RightForeArm
						{
							OFFSET -5.241900 -0.000000 -0.000000
							CHANNELS 3 Zrotation Yrotation Xrotation
							JOINT RightHand
							{
								OFFSET -3.444170 -0.000000 -0.000000
								CHANNELS 3 Zrotation Yrotation Xrotation
								JOINT RightFingerBase
								{
									OFFSET 0.000000 0.000000 0.000000
									CHANNELS 3 Zrotation Yrotation Xrotation
									JOINT RightHandIndex1
									{
										OFFSET -0.622530 -0.000000 -0.000000
										CHANNELS 3 Zrotation Yrotation Xrotation
										End Site
										{
											OFFSET 0.000000 0.000000 0.000000
										}
									}
								}
								JOINT RThumb
								{
									OFFSET 0.000000 0.000000 0.000000
									CHANNELS 3 Zrotation Yrotation Xrotation
									End Site
									{
										OFFSET 0.000000 0.000000 0.000000
									}
								}
							}
						}
					}
				}
			}
		}
	}
}
}
MOTION
Frames: 7
Frame Time: 0.008333
-10.744888 17.210052 -0.730139 -168.452730 87.186288 -147.555479 2.521794 -5.868750 -10.760540 1.155628 -6.180377 -4.581678 -3.253981 -6.370728 1.863810 8.628397 -23.231099 -12.030598 -1.345482 -0.038887 -1.081251 0.000000 0.000000 0.000000 12.851806 8.596956 -3.316093 -85.905972 -19.658183 28.772708 -179.550399 -65.618477 179.867549 13.595542 -26.146082 -3.458248 -0.390829 1.594998 -0.000000 0.000000 0.000000 0.000000 0.000000 0.000000 0.000000 0.763089 -20.828539 -0.934764 61.051489 -16.871633 3.185920 179.727047 69.949765 179.917092 -15.738569 32.726505 -4.845154 0.206197 -0.885193 0.000000 0.000000 0.000000 0.000000 0.000000 0.000000 0.000000 
-10.476508 17.276146 -0.715477 -161.590445 87.041556 -140.967985 2.954504 -6.122086 -10.561253 1.322224 -6.466153 -4.603341 -3.070384 -6.680578 1.742432 8.534153 -23.584617 -11.981575 -1.277683 -0.033770 -1.065347 0.000000 0.000000 0.000000 13.522300 7.761567 -3.365105 -86.422973 -19.141006 29.549242 -179.717242 -65.395530 179.866559 13.223337 -25.937500 -3.334226 -0.372214 1.594043 -0.000000 0.000000 0.000000 0.000000 0.000000 0.000000 0.000000 0.434866 -21.350516 -0.878045 60.208072 -17.295901 3.517710 179.731926 69.746232 179.918126 -15.732006 32.483513 -4.805841 0.208340 -0.879753 0.000000 0.000000 0.000000 0.000000 0.000000 0.000000 0.000000 
-10.210654 17.332178 -0.699413 -155.981041 86.880786 -135.644378 3.339246 -6.367914 -10.318373 1.473294 -6.741706 -4.613159 -2.909402 -6.979088 1.621263 8.484204 -23.953244 -11.938857 -1.216222 -0.029075 -1.052003 0.000000 0.000000 0.000000 14.199304 6.908764 -3.424527 -86.924600 -18.572383 30.194829 -179.894313 -65.174092 179.864525 12.919658 -25.648984 -3.218767 -0.354502 1.588919 -0.000000 0.000000 0.000000 0.000000 0.000000 0.000000 0.000000 0.164003 -21.885506 -0.824400 59.449974 -17.513526 3.885215 179.734375 69.525941 179.919163 -15.702239 32.237342 -4.759414 0.210687 -0.876078 0.000000 0.000000 0.000000 0.000000 0.000000 0.000000 0.000000 
-9.947353 17.377431 -0.681664 -151.491629 86.739708 -131.455237 3.662079 -6.605878 -10.034310 1.603215 -7.003589 -4.610159 -2.774680 -7.261577 1.502849 8.479975 -24.329150 -11.901915 -1.164672 -0.025132 -1.040858 0.000000 0.000000 0.000000 14.869364 6.049633 -3.491894 -87.397676 -17.956765 30.715731 179.922981 -64.946721 179.861651 12.683991 -25.286458 -3.112458 -0.338173 1.580121 -0.000000 0.000000 0.000000 0.000000 0.000000 0.000000 0.000000 -0.034860 -22.422377 -0.775765 58.784578 -17.524118 4.271308 179.732539 69.286305 179.920316 -15.627367 31.980942 -4.698270 0.212983 -0.874057 0.000000 0.000000 0.000000 0.000000 0.000000 0.000000 0.000000 
-9.686525 17.411376 -0.662067 -147.924913 86.641888 -128.209460 3.912809 -6.836110 -9.710677 1.708403 -7.250007 -4.593479 -2.668862 -7.525508 1.389254 8.520119 -24.702022 -11.869036 -1.126374 -0.022269 -1.031221 0.000000 0.000000 0.000000 15.514518 5.195257 -3.563461 -87.829044 -17.301253 31.123186 179.740057 -64.706307 179.858189 12.514582 -24.861277 -3.016584 -0.323729 1.568413 -0.000000 0.000000 0.000000 0.000000 0.000000 0.000000 0.000000 -0.152681 -22.948517 -0.734622 58.220619 -17.334036 4.659760 179.725164 69.018861 179.921636 -15.488201 31.710201 -4.616413 0.214935 -0.873750 0.000000 0.000000 0.000000 0.000000 0.000000 0.000000 0.000000 
-9.428064 17.433690 -0.640650 -145.090677 86.606823 -125.724177 4.082981 -7.058118 -9.349860 1.786168 -7.479354 -4.562338 -2.594215 -7.768714 1.282989 8.601710 -25.061079 -11.838896 -1.104224 -0.020768 -1.022550 0.000000 0.000000 0.000000 16.108301 4.362665 -3.633725 -88.203442 -16.618351 31.434164 179.563790 -64.454541 179.854439 12.410653 -24.392659 -2.932723 -0.311812 1.554705 -0.000000 0.000000 0.000000 0.000000 0.000000 0.000000 0.000000 -0.182093 -23.451561 -0.703960 57.764382 -16.953133 5.039293 179.711212 68.718283 179.923159 -15.272973 31.426217 -4.511143 0.216316 -0.875226 0.000000 0.000000 0.000000 0.000000 0.000000 0.000000 0.000000 
-9.171702 17.444161 -0.617439 -142.734772 86.634749 -123.748788 4.178835 -7.270497 -8.957198 1.837922 -7.691291 -4.517669 -2.551847 -7.990844 1.184791 8.719818 -25.394673 -11.808968 -1.100548 -0.020886 -1.013969 0.000000 0.000000 0.000000 16.625600 3.562935 -3.696823 -88.509604 -15.914402 31.661023 179.399975 -64.193954 179.850707 12.362440 -23.901894 -2.860556 -0.302638 1.539998 -0.000000 0.000000 0.000000 0.000000 0.000000 0.000000 0.000000 -0.122221 -23.918669 -0.686004 57.421131 -16.397348 5.402098 179.690111 68.378940 179.924877 -14.978137 31.134730 -4.382862 0.216966 -0.878637 0.000000 0.000000 0.000000 0.000000 0.000000 0.000000 0.000000 
